# xmcd CD database file
#
# Track frame offsets:
#	150
#	20770
#	36018
#	53013
#	75163
#
# Disc length: 1329 seconds
#
# Revision: 0
# Processed by: cddbd v1.5.1PL0 Copyright (c) Steve Scherf et al.
# Submitted via: CDex 1.51
#
DISCID=2d052f05
DTITLE=八神純子 - CD-BOX ?　My memorial Cocky Pop
DYEAR=2002
DGENRE=J-Pop
TTITLE0=うまくいかなくても
TTITLE1=ハローアンドグッバイ
TTITLE2=冬
TTITLE3=愛色の季節
TTITLE4=私の歌の心の世界
EXTD=YEAR: 2002
EXTT0=
EXTT1=
EXTT2=
EXTT3=
EXTT4=
PLAYORDER=
